<svg xmlns="http://www.w3.org/2000/svg" fill="currentColor" height="24" viewBox="0 0 24 24" width="24" focusable="false" aria-hidden="true" style="pointer-events: none; display: inherit; width: 100%; height: 100%;"><path clip-rule="evenodd" d="m14.302 6.457-.668-.278L12.87 3.5h-1.737l-.766 2.68-.668.277c-.482.2-.934.463-1.344.778l-.575.44-2.706-.677-.868 1.504 1.938 2.003-.093.716c-.033.255-.05.514-.05.779 0 .264.017.524.05.779l.093.716-1.938 2.003.868 1.504 2.706-.677.575.44c.41.315.862.577 1.344.778l.668.278.766 2.679h1.737l.765-2.68.668-.277c.483-.2.934-.463 1.345-.778l.574-.44 2.706.677.869-1.504-1.938-2.003.092-.716c.033-.255.05-.514.05-.779 0-.264-.017-.524-.05-.779l-.092-.716 1.938-2.003-.869-1.504-2.706.677-.574-.44c-.41-.315-.862-.577-1.345-.778Zm4.436.214Zm-3.86-1.6-.67-2.346c-.123-.429-.516-.725-.962-.725h-2.492c-.446 0-.838.296-.961.725l-.67 2.347c-.605.251-1.17.58-1.682.972l-2.37-.593c-.433-.108-.885.084-1.108.47L2.717 8.08c-.223.386-.163.874.147 1.195l1.698 1.755c-.04.318-.062.642-.062.971 0 .329.021.653.062.97l-1.698 1.756c-.31.32-.37.809-.147 1.195l1.246 2.158c.223.386.675.578 1.109.47l2.369-.593c.512.393 1.077.72 1.681.972l.67 2.347c.124.429.516.725.962.725h2.492c.446 0 .839-.296.961-.725l.67-2.347c.605-.251 1.17-.58 1.682-.972l2.37.593c.433.108.885-.084 1.109-.47l1.245-2.158c.223-.386.163-.874-.147-1.195l-1.698-1.755c.04-.318.062-.642.062-.971 0-.329-.021-.653-.062-.97l1.698-1.756c.31-.32.37-.809.147-1.195L20.038 5.92c-.224-.386-.676-.578-1.11-.47l-2.369.593c-.512-.393-1.077-.72-1.681-.972ZM15.5 12c0 1.933-1.567 3.5-3.5 3.5S8.5 13.933 8.5 12s1.567-3.5 3.5-3.5 3.5 1.567 3.5 3.5ZM14 12c0 1.105-.895 2-2 2s-2-.895-2-2 .895-2 2-2 2 .895 2 2Z" fill-rule="evenodd"></path></svg>
