<svg xmlns="http://www.w3.org/2000/svg" fill="currentColor" height="24" viewBox="0 0 24 24" width="24" focusable="false" aria-hidden="true" style="pointer-events: none; display: inherit; width: 100%; height: 100%;"><path clip-rule="evenodd" d="M20.5 12c0 4.694-3.806 8.5-8.5 8.5S3.5 16.694 3.5 12 7.306 3.5 12 3.5s8.5 3.806 8.5 8.5Zm1.5 0c0 5.523-4.477 10-10 10S2 17.523 2 12 6.477 2 12 2s10 4.477 10 10Zm-9.25-5c0-.414-.336-.75-.75-.75s-.75.336-.75.75v5.375l.3.225 4 3c.331.248.802.181 1.05-.15.248-.331.181-.801-.15-1.05l-3.7-2.775V7Z" fill-rule="evenodd"></path></svg>
