<svg xmlns="http://www.w3.org/2000/svg" fill="currentColor" height="24" viewBox="0 0 24 24" width="24" focusable="false"  style="pointer-events: none; display: inherit; width: 100%; height: 100%;"><path clip-rule="evenodd" d="M14.813 5.018 14.41 6.5 14 8h5.192c.826 0 1.609.376 2.125 1.022.711.888.794 2.125.209 3.101L21 13l.165.413c.519 1.296.324 2.769-.514 3.885l-.151.202v.5c0 1.657-1.343 3-3 3H5c-1.105 0-2-.895-2-2v-8c0-1.105.895-2 2-2h2v.282c0-.834.26-1.647.745-2.325L12 1l1.1.472c1.376.59 2.107 2.103 1.713 3.546ZM7 10.5H5c-.276 0-.5.224-.5.5v8c0 .276.224.5.5.5h2v-9Zm10.5 9h-9V9.282c0-.521.163-1.03.466-1.453l3.553-4.975c.682.298 1.043 1.051.847 1.77l-.813 2.981c-.123.451-.029.934.255 1.305.284.372.725.59 1.192.59h5.192c.37 0 .722.169.954.459.32.399.357.954.094 1.393l-.526.876c-.241.402-.28.894-.107 1.33l.165.412c.324.81.203 1.73-.32 2.428l-.152.202c-.195.26-.3.575-.3.9v.5c0 .828-.672 1.5-1.5 1.5Z" fill-rule="evenodd"></path></svg>
