<svg xmlns="http://www.w3.org/2000/svg" fill="currentColor" height="24" viewBox="0 0 24 24" width="24" focusable="false" aria-hidden="true" style="pointer-events: none; display: inherit; width: 100%; height: 100%;"><path clip-rule="evenodd" d="M3.75 5c-.414 0-.75.336-.75.75s.336.75.75.75h16.5c.414 0 .75-.336.75-.75S20.664 5 20.25 5H3.75Zm0 4c-.414 0-.75.336-.75.75s.336.75.75.75h16.5c.414 0 .75-.336.75-.75S20.664 9 20.25 9H3.75Zm0 4c-.414 0-.75.336-.75.75s.336.75.75.75h8.5c.414 0 .75-.336.75-.75s-.336-.75-.75-.75h-8.5Zm8.5 4c.414 0 .75.336.75.75s-.336.75-.75.75h-8.5c-.414 0-.75-.336-.75-.75s.336-.75.75-.75h8.5Zm3.498-3.572c-.333-.191-.748.05-.748.434v6.276c0 .384.415.625.748.434L22 17l-6.252-3.572Z" fill-rule="evenodd"></path></svg>
