<svg xmlns="http://www.w3.org/2000/svg" fill="currentColor" height="24" viewBox="0 0 24 24" width="24" focusable="false" aria-hidden="true" style="pointer-events: none; display: inherit; width: 100%; height: 100%;"><path clip-rule="evenodd" d="M4 4.5A1.5 1.5 0 015.5 3h13A1.5 1.5 0 0120 4.5H4Zm16.5 3h-17v11h17v-11ZM3.5 6A1.5 1.5 0 002 7.5v11A1.5 1.5 0 003.5 20h17a1.5 1.5 0 001.5-1.5v-11A1.5 1.5 0 0020.5 6h-17Zm7.257 4.454a.5.5 0 00-.757.43v4.233a.5.5 0 00.757.429L15 13l-4.243-2.546Z" fill-rule="evenodd"></path></svg>
