<svg width="72" height="72" viewBox="0 0 72 72" fill="none" xmlns="http://www.w3.org/2000/svg">
<path fill-rule="evenodd" clip-rule="evenodd" d="M36 5.67949C52.7456 5.67949 66.3205 19.2544 66.3205 36C66.3205 52.7456 52.7456 66.3204 36 66.3204C19.2544 66.3204 5.67962 52.7456 5.67962 36C5.67962 19.2544 19.2544 5.67949 36 5.67949ZM71.8333 36C71.8333 16.2098 55.7902 0.166672 36 0.166672C16.21 0.166672 0.166663 16.2098 0.166663 36C0.166663 55.79 16.21 71.8333 36 71.8333C55.7902 71.8333 71.8333 55.79 71.8333 36Z" fill="#616161"/>
<path fill-rule="evenodd" clip-rule="evenodd" d="M36 51.6197C34.4778 51.6197 33.2437 50.3856 33.2437 48.8631V34.1625C33.2437 32.6399 34.4778 31.4058 36 31.4058C37.5222 31.4058 38.7563 32.6399 38.7563 34.1625V48.8631C38.7563 50.3856 37.5222 51.6197 36 51.6197Z" fill="#616161"/>
<path d="M32.3249 23.1368C32.3249 21.107 33.9704 19.4615 36 19.4615C38.0296 19.4615 39.6751 21.107 39.6751 23.1368C39.6751 25.1665 38.0296 26.812 36 26.812C33.9704 26.812 32.3249 25.1665 32.3249 23.1368Z" fill="#616161"/>
</svg>
