<svg width="989" height="128" viewBox="0 0 989 128" fill="none" xmlns="http://www.w3.org/2000/svg">
<path d="M0 24C0 10.7452 10.7452 0 24 0H104C117.255 0 128 10.7452 128 24V104C128 117.255 117.255 128 104 128H24C10.7452 128 0 117.255 0 104V24Z" fill="#F61C0D"/>
<path d="M106.49 57.504L106.467 57.4823L106.486 57.5011C106.079 57.0866 105.622 56.7114 105.119 56.3771C104.946 56.3757 104.771 56.3409 104.604 56.2682C104.334 56.1532 104.123 55.9598 103.979 55.7286C103.175 55.3463 102.333 55.1004 101.48 54.9798C100.734 54.8767 100.219 54.1888 100.324 53.4443C100.427 52.7012 101.115 52.1836 101.856 52.2867C102.707 52.4076 103.552 52.6257 104.37 52.9412C104.5 52.3479 104.572 51.743 104.572 51.1293C104.571 49.7915 104.257 48.4391 103.587 47.1698V47.1683C102.82 45.7143 101.704 44.5816 100.389 43.8036C99.2388 43.1231 97.9419 42.7202 96.6069 42.6315C96.5095 43.8413 96.2202 45.0556 95.7142 46.2276C95.4175 46.9168 94.6179 47.2366 93.9271 46.9399C93.2378 46.6433 92.9181 45.8437 93.2147 45.1528C93.6988 44.0246 93.9271 42.8583 93.9301 41.7053C93.9301 41.5395 93.9228 41.3753 93.9155 41.2109C93.8254 39.6145 93.2931 38.0687 92.3916 36.7556C91.4885 35.4411 90.225 34.362 88.6503 33.6847C87.522 33.1975 86.3529 32.9691 85.2012 32.9691C82.9953 32.9691 80.8579 33.8184 79.2466 35.3174C79.5491 36.344 79.7163 37.4287 79.7163 38.5512C79.7163 39.3015 79.107 39.9093 78.3566 39.9093C77.6048 39.9093 76.9955 39.3015 76.9955 38.5512C76.9955 37.4491 76.7928 36.4049 76.4232 35.4338L76.424 35.435C75.7973 33.7949 74.687 32.3887 73.2686 31.3942C71.8509 30.3996 70.1345 29.8181 68.2681 29.8181C66.6439 29.8181 65.133 30.2571 63.834 31.0249C62.7949 31.6384 61.897 32.466 61.1932 33.4401C62.5694 35.3291 63.3816 37.6613 63.3809 40.174C63.3809 40.9244 62.7724 41.532 62.0212 41.532C61.2687 41.532 60.6602 40.9242 60.6602 40.174C60.6595 37.9637 59.8465 35.9542 58.4973 34.4186L58.4952 34.4171C56.8906 32.5879 54.5495 31.4422 51.9286 31.4406C50.1074 31.442 48.4279 31.9932 47.0283 32.9428C45.6309 33.8923 44.5208 35.2374 43.8628 36.815C43.4359 37.846 43.1962 38.9831 43.1962 40.174C43.1962 40.9244 42.5883 41.532 41.8365 41.532C41.0854 41.532 40.4763 40.9242 40.4763 40.174C40.4763 39.0702 40.637 38.0015 40.9277 36.9895C39.9033 36.5736 38.796 36.3466 37.656 36.3466C37.0112 36.3466 36.3553 36.4207 35.6988 36.5706C33.7627 37.0156 32.1377 38.0625 30.9556 39.4744C30.1014 40.4937 29.4891 41.7035 29.1692 43.0063C31.9822 43.0588 34.7915 44.1435 36.9573 46.2649C37.4937 46.7898 37.5033 47.6505 36.9776 48.1871C36.4527 48.7235 35.5913 48.7324 35.0545 48.2088C33.3525 46.544 31.1532 45.7166 28.9459 45.7138C28.5505 45.7138 28.1563 45.7429 27.7651 45.7937L27.7601 45.7952H27.758H27.7566C25.9031 46.0483 24.1213 46.8916 22.705 48.3339C21.0393 50.0366 20.214 52.2309 20.2135 54.4396C20.2135 55.7062 20.4876 56.9741 21.0343 58.1433C21.4655 59.0652 22.0644 59.9259 22.8351 60.682L22.8365 60.6834C23.7127 61.5442 24.7217 62.1768 25.797 62.5941C26.4971 62.863 26.8453 63.6513 26.5741 64.3521C26.3029 65.0529 25.5155 65.4019 24.8154 65.13C23.4063 64.5861 22.0765 63.7501 20.9301 62.6247C20.4277 62.1302 19.9784 61.6009 19.5843 61.0441C18.5563 62.5162 18 64.2772 18 66.0686C18.0007 67.4573 18.3317 68.8605 19.0339 70.1764C19.8234 71.6509 20.9662 72.7996 22.3085 73.5862C23.372 74.2101 24.5593 74.5983 25.7816 74.7349L25.7793 74.6564C25.7793 73.9366 25.8463 73.2299 25.9726 72.5465C26.1093 71.8078 26.819 71.3207 27.557 71.4557C28.2963 71.5912 28.7842 72.3035 28.6482 73.0422C28.5508 73.5656 28.4991 74.1051 28.4991 74.6562C28.4991 74.8656 28.5071 75.075 28.5217 75.2843C28.5377 75.5068 28.561 75.7191 28.5946 75.9213L28.596 75.9314L28.5974 75.9416C29.2198 80.2122 32.9066 83.3982 37.2259 83.3982C37.4324 83.3982 37.6418 83.3894 37.852 83.3748H37.8542C39.7693 83.2367 41.4887 82.4966 42.8498 81.3479C43.8109 80.5366 44.5917 79.526 45.1304 78.3858C45.4511 77.7068 46.2624 77.4161 46.9416 77.7374C47.6205 78.0588 47.9106 78.8687 47.5899 79.5478C47.0103 80.7736 46.2173 81.8786 45.2598 82.8238C45.7948 84.4641 46.7988 85.8789 48.1077 86.9273C49.6118 88.1299 51.5035 88.8366 53.5451 88.8366C53.7516 88.8366 53.9594 88.8307 54.1718 88.8147H54.1739C55.4694 88.7203 56.6677 88.3508 57.7299 87.7707C57.5626 86.9869 57.4702 86.1857 57.4702 85.3773C57.4702 83.708 57.8388 82.0096 58.6111 80.41C58.9367 79.7311 59.7503 79.4488 60.4264 79.7748C61.1025 80.1004 61.3876 80.9132 61.0611 81.5895C60.4693 82.8197 60.1901 84.1063 60.1901 85.3773C60.1901 86.2687 60.3283 87.1525 60.5935 87.9961L60.5942 87.9975C61.2908 90.2193 62.8655 92.1561 65.1323 93.2481C66.3574 93.8398 67.6442 94.119 68.9159 94.119C70.9313 94.119 72.9045 93.4138 74.4639 92.1343L74.4689 92.1314C75.4178 91.3492 76.216 90.3603 76.786 89.1796L76.7874 89.1752C77.321 88.0714 77.5988 86.914 77.6496 85.7595C77.683 85.0092 78.3184 84.4275 79.0702 84.4595C79.819 84.4945 80.4006 85.1285 80.3686 85.8789C80.3003 87.3911 79.9353 88.9178 79.2359 90.3603L79.2373 90.3589C78.6746 91.525 77.9388 92.553 77.075 93.4283C78.6789 95.7344 81.3472 97.1828 84.232 97.1814C84.7684 97.1814 85.3125 97.1304 85.862 97.0287C87.9603 96.6316 89.7313 95.5237 90.9905 93.9925C92.2485 92.4615 92.9797 90.5156 92.9797 88.461C92.9797 88.397 92.9783 88.3347 92.9767 88.2749V88.2664C92.9694 87.8011 92.92 87.3184 92.8269 86.8326C92.6102 85.6766 92.1684 84.6282 91.565 83.6976C90.6866 82.9226 89.7066 81.9135 88.7863 80.788C87.8077 79.5885 86.9003 78.2784 86.2925 76.9566C85.8926 76.0711 85.6075 75.1796 85.6018 74.236C85.6018 73.8187 85.6644 73.3868 85.817 72.9695C85.9711 72.5522 86.2212 72.1509 86.5529 71.8222V71.8237C87.0836 71.2915 87.9443 71.2915 88.4752 71.8237C89.006 72.3529 89.006 73.2167 88.4752 73.7458C88.4228 73.8011 88.3967 73.8418 88.3706 73.9103C88.3444 73.9801 88.3226 74.0834 88.3226 74.2359C88.3167 74.5775 88.458 75.1594 88.7662 75.8237C89.0701 76.4883 89.5223 77.2342 90.0532 77.9715C91.1073 79.4488 92.4755 80.9 93.5051 81.7812L93.6448 81.9019L93.7481 82.053C94.5914 83.3078 95.205 84.7517 95.5016 86.3294V86.3309C95.5439 86.5562 95.5715 86.78 95.6004 87.007C95.7343 87.0128 95.8709 87.0244 96.0076 87.0244C97.7336 87.023 99.4683 86.5127 100.995 85.4394C102.209 84.5873 103.133 83.4896 103.759 82.2579C104.386 81.0248 104.712 79.6594 104.71 78.2855C104.71 76.9986 104.422 75.7089 103.841 74.5064C103.307 74.6795 102.763 74.8162 102.209 74.912C101.469 75.0401 100.765 74.5426 100.636 73.8011C100.511 73.061 101.008 72.3588 101.748 72.2308C104.158 71.8149 106.361 70.4133 107.728 68.1609C108.591 66.7431 108.998 65.183 109 63.6372C109 61.372 108.117 59.1501 106.49 57.504ZM44.1604 47.122C45.4617 45.5863 47.1877 44.4943 49.0417 43.7804C50.8993 43.0664 52.8949 42.7218 54.8072 42.7218C56.6691 42.7232 58.4547 43.0445 59.975 43.7425C60.6562 44.0567 60.9543 44.8651 60.6401 45.5472C60.3246 46.2304 59.5163 46.5273 58.8343 46.213C57.7823 45.723 56.3478 45.4395 54.8072 45.4409C53.2252 45.4409 51.534 45.7346 50.0196 46.3191C48.5022 46.9007 47.1717 47.7717 46.2361 48.8783V48.8797C45.752 49.4512 44.8933 49.524 44.3196 49.0383C43.7466 48.5527 43.6748 47.6948 44.1604 47.122ZM75.1213 79.2833C73.5407 79.2862 72.105 79.1074 70.794 78.8035C70.8303 79.1772 70.855 79.5915 70.855 80.0352C70.855 80.9235 70.7605 81.9369 70.4793 83.0015C70.1986 84.0644 69.7282 85.1811 68.9858 86.2543C68.5583 86.8708 67.7114 87.0249 67.0925 86.5975C66.4755 86.17 66.3212 85.3236 66.7495 84.7042C67.2948 83.9162 67.638 83.1032 67.8493 82.3066C68.0601 81.5096 68.1351 80.7305 68.1351 80.0353C68.1358 79.077 67.9919 78.2816 67.8879 77.8337C67.2242 77.5328 66.607 77.1927 66.037 76.8203C63.7606 75.343 62.2367 73.3975 61.2778 71.5434C60.6372 70.306 60.243 69.1049 60.036 68.0637C59.9167 67.4704 59.8579 66.928 59.8579 66.4381C59.8579 65.6863 60.4662 65.0772 61.2188 65.0772C61.9699 65.0772 62.5784 65.6863 62.5784 66.4381C62.5761 66.8366 62.6613 67.4967 62.8772 68.2471C63.0916 69.0018 63.4341 69.8611 63.9292 70.7247C64.9217 72.4551 66.4993 74.1913 68.9305 75.3183C70.5553 76.0715 72.5772 76.5615 75.1213 76.5629C75.8724 76.5629 76.4817 77.1722 76.4817 77.9224C76.4817 78.6741 75.8724 79.2833 75.1213 79.2833ZM84.698 69.3505C84.4174 70.047 83.6263 70.3872 82.9283 70.1066C82.2334 69.8289 81.8946 69.0423 82.1692 68.3442V68.3427L82.1781 68.3225C82.1866 68.299 82.1998 68.2585 82.2186 68.2032C82.2551 68.0955 82.3059 67.924 82.3569 67.7116C82.4616 67.2825 82.5649 66.6763 82.5649 66.0103L82.5604 65.9129C80.6978 66.5469 78.9616 66.8363 77.3643 66.8363C74.9505 66.8393 72.8639 66.1776 71.1641 65.1728C69.4614 64.1681 68.1382 62.8376 67.1494 61.4896C66.0254 59.9556 64.5495 58.5828 62.8607 57.6086C61.1695 56.6343 59.2763 56.0558 57.2653 56.0543C55.5 56.0586 53.6293 56.4978 51.6714 57.5695C49.8168 58.5903 48.6194 59.9483 47.8478 61.4374C47.0809 62.925 46.7603 64.5565 46.761 66.0382C46.7572 67.4123 47.0454 68.6541 47.4232 69.4408C47.7446 70.1213 47.4545 70.9313 46.7754 71.254C46.0971 71.5739 45.2856 71.286 44.9635 70.6056C44.3747 69.3508 44.0445 67.7745 44.0409 66.0384C44.0416 64.3153 44.3848 62.4338 45.2218 60.6321C43.5356 61.0146 41.9689 61.1847 40.5389 61.1831C39.7675 61.1845 39.0413 61.1308 38.349 61.0464C38.301 61.2266 38.2175 61.4011 38.0916 61.554L38.0909 61.5552H38.0895L38.0735 61.5757C38.0589 61.5961 38.0335 61.6281 38.0001 61.6702C37.9338 61.7575 37.835 61.8927 37.7107 62.0687C37.4635 62.419 37.1198 62.9396 36.7481 63.5954C36.0036 64.9043 35.1581 66.7465 34.7444 68.8185C34.5983 69.5558 33.8807 70.0342 33.1442 69.8858C32.4077 69.7388 31.9301 69.0234 32.0776 68.2848C32.5707 65.8244 33.539 63.738 34.3816 62.2532C34.8199 61.4809 35.2226 60.8747 35.5173 60.4588C34.4079 60.1259 33.4474 59.7187 32.6645 59.3042C30.8744 58.3532 29.9388 57.3978 29.8631 57.3209C29.3418 56.7799 29.3579 55.9193 29.8981 55.3987C30.4375 54.8781 31.2954 54.8941 31.8158 55.4293L31.8172 55.4278L31.8304 55.441L31.9141 55.521C31.9941 55.5937 32.1242 55.7056 32.3016 55.8453C32.6563 56.1258 33.2046 56.5111 33.9374 56.8981C35.4052 57.6746 37.5995 58.4612 40.5389 58.4643C42.6023 58.4643 45.0409 58.07 47.8704 56.9825C48.5886 56.3151 49.4131 55.7042 50.364 55.1852C52.6898 53.9071 55.0375 53.3341 57.2651 53.3357C59.8054 53.3357 62.1727 54.073 64.2193 55.2537C66.268 56.4372 68.0065 58.0601 69.3427 59.8804C70.1533 60.9856 71.2227 62.0513 72.5445 62.8294C73.8699 63.6073 75.4425 64.1148 77.364 64.1164C78.6778 64.1164 80.1638 63.8736 81.8404 63.2846C81.4348 62.6245 80.8225 61.9889 79.8178 61.4161C79.1636 61.0467 78.9337 60.2149 79.3031 59.5621C79.6726 58.9077 80.5028 58.6779 81.1558 59.046C82.7653 59.9533 83.8429 61.1543 84.4666 62.4078C85.0963 63.6612 85.2853 64.9306 85.2853 66.011C85.2796 67.8948 84.7329 69.2531 84.698 69.3505ZM84.189 52.6852C81.0104 52.6866 78.2301 51.8287 75.9807 50.5302C75.6659 50.9722 75.2399 51.5219 74.6923 52.1254C73.4622 53.4747 71.652 55.0612 69.2316 55.9306C68.5242 56.1837 67.7463 55.8144 67.4932 55.1063C67.241 54.3982 67.6094 53.6215 68.3168 53.3686C70.1003 52.736 71.5935 51.4827 72.6304 50.35C73.1081 49.8324 73.4817 49.3467 73.753 48.9686C72.408 47.8345 71.35 46.5432 70.6259 45.2172C69.9336 43.9405 69.5339 42.6288 69.5302 41.3493C69.5302 40.5991 70.1387 39.9912 70.8897 39.9912C71.6408 39.9912 72.25 40.5991 72.25 41.3493C72.2465 42.0371 72.4879 42.9546 73.0141 43.9158C73.5383 44.8798 74.3343 45.886 75.3712 46.7846C77.4475 48.5847 80.4504 49.9646 84.1888 49.9646C84.9392 49.9646 85.5485 50.5739 85.5485 51.3255C85.5487 52.0775 84.9394 52.6852 84.189 52.6852ZM94.9114 71.8384C94.4316 72.4171 93.5737 72.4985 92.9948 72.0202C92.4163 71.5418 92.3347 70.6838 92.8132 70.1051C94.2934 68.3022 94.8429 66.4904 94.8475 64.7527C94.8504 63.1721 94.3691 61.6439 93.61 60.36C92.8553 59.073 91.8202 58.0466 90.8227 57.475C90.1582 57.0897 89.5256 56.9137 89.0253 56.9151C88.2735 56.9151 87.6644 56.3073 87.6644 55.5554C87.6644 54.8052 88.2737 54.196 89.0253 54.196C89.8543 54.196 90.6626 54.3982 91.4304 54.7368C92.1966 55.0741 92.9237 55.5498 93.5984 56.1313C94.9435 57.2946 96.0878 58.8809 96.8046 60.7378C97.283 61.9754 97.5695 63.3335 97.5695 64.7525C97.5738 67.0879 96.777 69.586 94.9114 71.8384Z" fill="white"/>
<path d="M186.6 117.3V69.3H211.5V53.1H186.6V25.2H219.9V9H168V117.3H186.6Z" fill="#282828"/>
<path d="M260.75 91.8C260.75 101.1 257.45 105 251.45 105C245.45 105 242.15 101.1 242.15 91.8V62.1C242.15 52.8 245.45 48.9 251.45 48.9C257.45 48.9 260.75 52.8 260.75 62.1V91.8ZM225.35 88.8C225.35 106.5 232.25 118.8 251.45 118.8C270.65 118.8 277.55 106.5 277.55 88.8V65.1C277.55 47.4 270.65 35.1 251.45 35.1C232.25 35.1 225.35 47.4 225.35 65.1V88.8Z" fill="#282828"/>
<path d="M336.701 64.2C336.401 46.95 329.501 35.1 310.601 35.1C291.401 35.1 284.501 47.4 284.501 65.1V88.8C284.501 106.5 291.401 118.8 310.601 118.8C329.801 118.8 336.701 106.5 336.701 88.8V86.7H319.901V91.8C319.901 101.1 316.601 105 310.601 105C304.601 105 301.301 101.1 301.301 91.8V62.1C301.301 52.8 304.601 48.9 310.601 48.9C316.601 48.9 319.901 52.8 319.901 62.1V64.2H336.701Z" fill="#282828"/>
<path d="M378.151 36.6V99.9C374.251 102.75 370.951 105 367.351 105C363.751 105 361.351 103.2 361.351 99.15V36.6H344.551V101.85C344.551 112.35 349.801 118.8 358.651 118.8C368.401 118.8 372.001 115.2 379.051 109.2V117.3H394.951V36.6H378.151Z" fill="#282828"/>
<path d="M448.552 56.55C446.002 43.95 437.152 35.1 423.952 35.1C411.352 35.1 401.452 43.95 401.452 56.7C401.452 78.75 432.952 84 432.952 97.95C432.952 102.45 429.802 105 425.452 105C417.802 105 415.402 99 414.352 92.25L399.652 96.3C402.202 110.4 410.602 118.8 425.302 118.8C438.952 118.8 448.852 111.45 448.852 97.05C448.852 73.05 417.352 67.95 417.352 55.35C417.352 51.15 420.352 48.9 424.702 48.9C430.102 48.9 433.102 52.5 434.302 58.95L448.552 56.55Z" fill="#282828"/>
<path d="M470.402 66.3V62.1C470.402 52.8 473.702 48.9 479.702 48.9C485.702 48.9 489.002 52.8 489.002 62.1V66.3H470.402ZM505.802 65.1C505.802 47.4 498.902 35.1 479.702 35.1C460.502 35.1 453.602 47.4 453.602 65.1V88.8C453.602 106.5 460.502 118.8 479.702 118.8C498.452 118.8 505.502 107.1 505.802 90H489.002V91.8C489.002 101.1 485.702 105 479.702 105C473.702 105 470.402 101.1 470.402 91.8V80.1H505.802V65.1Z" fill="#282828"/>
<path d="M564.053 117.3V9H547.253V43.5C540.653 38.1 537.203 35.1 529.853 35.1C519.353 35.1 512.753 42.9 512.753 57.6V96.3C512.753 111 519.353 118.8 529.853 118.8C538.253 118.8 542.303 115.95 547.853 108.9H548.153V117.3H564.053ZM547.253 100.8C543.953 103.2 540.953 105 537.653 105C533.153 105 529.553 102.6 529.553 91.95V61.95C529.553 51.3 533.153 48.9 537.653 48.9C540.953 48.9 543.953 50.7 547.253 53.1V100.8Z" fill="#282828"/>
<path d="M633.055 72.3L655.555 9H636.655L624.205 50.25H623.905L610.855 9H591.955L614.455 72.3V117.3H633.055V72.3Z" fill="#282828"/>
<path d="M689.569 91.8C689.569 101.1 686.269 105 680.269 105C674.269 105 670.969 101.1 670.969 91.8V62.1C670.969 52.8 674.269 48.9 680.269 48.9C686.269 48.9 689.569 52.8 689.569 62.1V91.8ZM654.169 88.8C654.169 106.5 661.069 118.8 680.269 118.8C699.469 118.8 706.369 106.5 706.369 88.8V65.1C706.369 47.4 699.469 35.1 680.269 35.1C661.069 35.1 654.169 47.4 654.169 65.1V88.8Z" fill="#282828"/>
<path d="M747.819 36.6V99.9C743.919 102.75 740.619 105 737.019 105C733.419 105 731.019 103.2 731.019 99.15V36.6H714.219V101.85C714.219 112.35 719.469 118.8 728.319 118.8C738.069 118.8 741.669 115.2 748.719 109.2V117.3H764.619V36.6H747.819Z" fill="#282828"/>
<path d="M785.07 117.3H803.67V25.2H821.67V9H767.07V25.2H785.07V117.3Z" fill="#282828"/>
<path d="M852.204 36.6V99.9C848.304 102.75 845.004 105 841.404 105C837.804 105 835.404 103.2 835.404 99.15V36.6H818.604V101.85C818.604 112.35 823.854 118.8 832.704 118.8C842.454 118.8 846.054 115.2 853.104 109.2V117.3H869.004V36.6H852.204Z" fill="#282828"/>
<path d="M893.654 117.3V108.9H893.954C899.504 115.95 903.554 118.8 911.954 118.8C922.454 118.8 929.054 111 929.054 96.3V57.6C929.054 42.9 922.454 35.1 911.954 35.1C904.604 35.1 901.154 38.1 894.554 43.5V9H877.754V117.3H893.654ZM894.554 53.1C897.854 50.7 900.854 48.9 904.154 48.9C908.654 48.9 912.254 51.3 912.254 61.95V91.95C912.254 102.6 908.654 105 904.154 105C900.854 105 897.854 103.2 894.554 100.8V53.1Z" fill="#282828"/>
<path d="M952.805 66.3V62.1C952.805 52.8 956.105 48.9 962.105 48.9C968.105 48.9 971.405 52.8 971.405 62.1V66.3H952.805ZM988.205 65.1C988.205 47.4 981.305 35.1 962.105 35.1C942.905 35.1 936.005 47.4 936.005 65.1V88.8C936.005 106.5 942.905 118.8 962.105 118.8C980.855 118.8 987.905 107.1 988.205 90H971.405V91.8C971.405 101.1 968.105 105 962.105 105C956.105 105 952.805 101.1 952.805 91.8V80.1H988.205V65.1Z" fill="#282828"/>
</svg>
